<?xml version="1.0" encoding="utf-8"?>
<!-- Generator: Adobe Illustrator 19.2.1, SVG Export Plug-In . SVG Version: 6.00 Build 0)  -->
<svg version="1.1" id="Layer_1" xmlns="http://www.w3.org/2000/svg" xmlns:xlink="http://www.w3.org/1999/xlink" x="0px" y="0px"
	 viewBox="0 0 749.9 612.2" style="enable-background:new 0 0 749.9 612.2;" xml:space="preserve">
<style type="text/css">
	.st0{fill:#FFFFFF;}
</style>
<g>
	<path class="st0" d="M505.9,513.9c-4.2,11.3-10.2,21-18,29.1c-7.8,8.1-17.1,14.4-28,18.8c-10.9,4.4-22.9,6.7-36,6.7
		c-20.4,0-37.9-5.1-52.4-15.2c-14.5-10.1-24-23.9-28.5-41.5h29.6c2.9,6.4,6.5,11.6,11,15.5c4.4,3.9,9.2,6.8,14.2,8.8
		c5,2,9.8,3.3,14.5,4s8.5,1,11.7,1c10.9,0,20.1-1.9,27.8-5.8c7.7-3.9,13.9-8.9,18.6-15c4.8-6.1,8.2-13,10.3-20.8
		c2.1-7.8,3.2-15.5,3.2-23.3v-18c-6.2,8.4-14.4,15.6-24.5,21.5c-10.1,5.9-21.4,8.8-33.8,8.8s-23.9-2.3-34.3-7s-19.5-11.1-27.1-19.3
		c-7.7-8.2-13.7-17.8-18-28.6c-4.3-10.9-6.5-22.5-6.5-35s2.2-24.1,6.5-35.1c4.3-11,10.3-20.5,18-28.6c7.7-8.1,16.7-14.5,27.1-19.3
		c10.4-4.8,21.9-7.2,34.3-7.2c12.7,0,24.2,3.1,34.6,9.3s18.6,13.7,24.6,22.3v-27.3h27.3v163.5C512.2,490.1,510.1,502.6,505.9,513.9z
		 M479.3,374.1c-3.1-7.8-7.3-14.6-12.7-20.5c-5.3-5.9-11.5-10.5-18.5-13.8s-14.5-5-22.5-5c-8,0-15.5,1.7-22.6,5
		c-7.1,3.3-13.2,7.9-18.3,13.8c-5.1,5.9-9.2,12.7-12.2,20.5c-3,7.8-4.5,16.1-4.5,25c0,8.7,1.5,16.9,4.5,24.6c3,7.8,7,14.5,12.2,20.3
		c5.1,5.8,11.2,10.3,18.3,13.7c7.1,3.3,14.7,5,22.6,5c8,0,15.5-1.7,22.5-5s13.2-7.9,18.5-13.7c5.3-5.8,9.5-12.5,12.7-20.3
		c3.1-7.8,4.7-16,4.7-24.6C483.9,390.2,482.4,381.8,479.3,374.1z"/>
	<path class="st0" d="M652.6,315.6c10.5,4.8,19.6,11.3,27.3,19.5s13.7,17.8,18.1,28.8c4.4,11,6.7,22.7,6.7,35.1s-2.2,24-6.7,34.8
		c-4.4,10.8-10.5,20.2-18.1,28.3c-7.7,8.1-16.8,14.5-27.3,19.1s-21.9,7-34.1,7c-12.2,0-23.5-2.3-34-7s-19.5-11-27.3-19.1
		c-7.8-8.1-13.9-17.5-18.3-28.3c-4.4-10.8-6.7-22.4-6.7-34.8s2.2-24.1,6.7-35.1c4.4-11,10.5-20.6,18.3-28.8
		c7.8-8.2,16.9-14.7,27.3-19.5c10.4-4.8,21.8-7.2,34-7.2C630.7,308.5,642,310.9,652.6,315.6z M640.9,457.3c7-3.3,13.2-7.8,18.5-13.5
		c5.3-5.7,9.5-12.4,12.5-20.1c3-7.8,4.5-16,4.5-24.6c0-8.9-1.5-17.3-4.5-25.1c-3-7.9-7.2-14.7-12.5-20.5
		c-5.3-5.8-11.5-10.4-18.5-13.8c-7-3.4-14.5-5.2-22.5-5.2c-8,0-15.5,1.7-22.5,5.2c-7,3.4-13.1,8-18.3,13.8
		c-5.2,5.8-9.3,12.6-12.3,20.5c-3,7.9-4.5,16.3-4.5,25.1c0,8.7,1.5,16.9,4.5,24.6c3,7.8,7.1,14.5,12.3,20.1
		c5.2,5.7,11.3,10.2,18.3,13.5s14.5,5,22.5,5C626.5,462.3,633.9,460.6,640.9,457.3z"/>
</g>
<path class="st0" d="M85,527.1c-4.6,0-9.2-1.1-13.4-3.4c-9.2-4.9-15-14.5-15-25V385.4c0-15.7,12.7-28.3,28.3-28.3
	s28.3,12.7,28.3,28.3v60.4l90.6-60.4L69.3,295.6c-13-8.7-16.5-26.3-7.9-39.3c8.7-13,26.3-16.5,39.3-7.9l170.1,113.4
	c7.9,5.3,12.6,14.1,12.6,23.6s-4.7,18.3-12.6,23.6L100.8,522.4C96,525.5,90.5,527.1,85,527.1z"/>
<g>
	<path class="st0" d="M709.7,277.8c-0.8,1.8-1.8,3.3-3.1,4.6s-2.8,2.3-4.6,3.1s-3.6,1.1-5.6,1.1s-3.9-0.4-5.6-1.1s-3.3-1.8-4.6-3.1
		s-2.3-2.8-3.1-4.6c-0.8-1.8-1.1-3.6-1.1-5.6c0-2,0.4-3.9,1.1-5.6c0.8-1.7,1.8-3.3,3.1-4.6s2.8-2.3,4.6-3.1s3.6-1.1,5.6-1.1
		s3.9,0.4,5.6,1.1s3.3,1.8,4.6,3.1s2.3,2.8,3.1,4.6c0.8,1.7,1.1,3.6,1.1,5.6C710.8,274.2,710.4,276.1,709.7,277.8z M707,267.6
		c-0.6-1.4-1.4-2.7-2.5-3.7c-1-1.1-2.3-1.9-3.7-2.5c-1.4-0.6-2.9-0.9-4.5-0.9s-3.1,0.3-4.5,0.9c-1.4,0.6-2.6,1.5-3.7,2.5
		c-1,1.1-1.9,2.3-2.5,3.7s-0.9,3-0.9,4.6c0,1.6,0.3,3.2,0.9,4.6c0.6,1.4,1.4,2.7,2.5,3.8c1,1.1,2.3,1.9,3.7,2.5
		c1.4,0.6,2.9,0.9,4.5,0.9s3.1-0.3,4.5-0.9c1.4-0.6,2.6-1.5,3.7-2.5c1-1.1,1.9-2.3,2.5-3.8c0.6-1.4,0.9-3,0.9-4.6
		C707.9,270.6,707.6,269,707,267.6z M700.2,279.8l-2.9-5.6h-3.9v5.5h-3v-15.9h7.6c1.7,0,3,0.5,4,1.4c1,0.9,1.5,2.2,1.5,3.8
		c0,1.1-0.3,2.1-0.9,3c-0.6,0.9-1.4,1.5-2.4,1.8l3.4,5.9H700.2z M698.1,271.5c0.6,0,1.2-0.2,1.7-0.5c0.5-0.4,0.8-1,0.8-1.9
		s-0.2-1.5-0.7-1.9c-0.4-0.4-1-0.5-1.8-0.5h-4.7v4.9H698.1z"/>
</g>
<g>
	<path class="st0" d="M106.8,152.6c4.1-3.4,9.2-6.1,14.7-6.1c5.3,0,12.9,3.2,12.9,15.4v34.8h-13v-29.6c0-3.9,0.3-10.2-5.4-10.2
		c-3.8,0-6.8,2.7-9.2,5.3v34.4h-13v-68.2h13V152.6z"/>
	<path class="st0" d="M140.5,172.1c0-13.1,7.2-25.6,21.6-25.6c14.4,0,21.6,12.5,21.6,25.6c0,13-7.3,25.6-21.6,25.6
		C147.7,197.7,140.5,185.1,140.5,172.1 M170.3,172.1c0-6.1-1.2-16-8.2-16c-7,0-8.2,9.9-8.2,16c0,6.1,1.2,16,8.2,16
		C169,188.2,170.3,178.2,170.3,172.1"/>
	<path class="st0" d="M217.3,191.6c-4.1,3.4-9.2,6.1-14.6,6.1c-5.4,0-12.9-3.2-12.9-15.3v-34.8h13v29.6c0,3.9-0.3,10.2,5.4,10.2
		c3.8,0,6.7-2.7,9.2-5.4v-34.4h13v49.1h-13V191.6z"/>
	<path class="st0" d="M252,180.5c-1.5,0-3.7,0.8-3.7,3.1c0,6.4,34-4.7,34,14.5c0,7.3-4.9,15-24.4,15c-16.9,0-22.7-6-22.7-12.4
		c0-3.8,2.4-5.7,5.3-7.5c-2.1-1.6-3.9-3.4-3.9-6.2c0-4.8,2.6-7.4,6.4-9.8c-3.6-3.5-6.1-7.9-6.1-13.5c0-10.9,9.2-17.2,19.8-17.2
		c4.3,0,8.4,1.2,12.1,3.4c2.6-2.4,5-4,8.9-4c1.2,0,2.5,0.1,3.8,0.3v9.1c-1.3-0.5-2.7-1-4.1-1c-1.4,0-2.3,0.4-3.5,1
		c1.4,2.6,2.5,5.5,2.6,8.3c0,10.9-9.1,17.2-19.7,17.2L252,180.5z M247.9,196.7c-1.2,0.8-2,1.5-2,3.1c0,4.6,9.2,4.8,12.3,4.8
		c2.2,0,13.6-0.3,13.6-4.2c0-2.5-1.8-2.3-9.5-2.7L247.9,196.7z M256.8,172.3c5.4,0,7-4.5,7-9.1c0-4.5-2.1-8.2-7-8.2
		c-5.4,0-7.1,4.6-7.1,9.2C249.7,168.6,251.8,172.3,256.8,172.3"/>
	<path class="st0" d="M300,152.6c4.1-3.4,9.2-6.1,14.7-6.1c5.3,0,12.9,3.2,12.9,15.4v34.8h-13v-29.6c0-3.9,0.3-10.2-5.4-10.2
		c-3.8,0-6.8,2.7-9.2,5.3v34.4h-13v-68.2h13V152.6z"/>
	<path class="st0" d="M351.9,147.5H362v10.8h-10.1v25c0,2.4,0.7,4.8,4.9,4.8c2.2,0,3.6-0.9,5.2-1.8v9.9c-2.7,0.8-5.5,1.5-8.3,1.5
		c-8.1,0-14.7-4.5-14.7-15.2v-24.1h-6.1v-10.8h6.1v-12.3h13V147.5z"/>
	<polygon class="st0" points="417.6,196.7 410.6,196.7 399,140.9 398.8,140.9 386.6,196.7 379.6,196.7 365.3,128.4 372.2,128.4 
		383.4,183.5 383.6,183.5 395.8,128.4 402.6,128.4 414.3,183.5 414.4,183.5 426.5,128.4 433.2,128.4 	"/>
	<path class="st0" d="M429.4,172.5c0-18.1,8.6-25.6,19.4-25.6c10.8,0,19.4,7.5,19.4,25.6c0,18.2-8.6,25.6-19.4,25.6
		C438,198.1,429.4,190.6,429.4,172.5 M461.3,172.5c0-8.2-2-19.8-12.5-19.8c-10.5,0-12.5,11.6-12.5,19.8c0,8.3,2,19.8,12.5,19.8
		C459.3,192.3,461.3,180.7,461.3,172.5"/>
	<path class="st0" d="M480.6,158.7h0.2c2.7-5.8,6.2-11.1,13.4-11.1h2.6v6.2c-8.9-1.2-13.6,8.4-16.2,15.4v27.5h-6.8v-48.4h6.8V158.7z
		"/>
	<polygon class="st0" points="507.9,170.7 525.8,148.3 533.5,148.3 520.1,164.8 535.5,196.7 528.1,196.7 515.8,170.4 507.9,180.1 
		507.9,196.7 501,196.7 501,128.4 507.9,128.4 	"/>
	<path class="st0" d="M565.4,159c-2.7-4-6-6.4-11.1-6.4c-4.5,0-8.7,2.3-8.7,7.2c0,11.8,25.5,6.7,25.5,23c0,9.5-6.8,15.2-15.9,15.2
		c-7.8,0-14.1-3.4-18.1-10.2l5.4-3.4c2.6,5,6.8,7.8,12.6,7.8c5,0,9.5-2.7,9.5-8.2c0-12.2-25.5-6.4-25.5-23.8
		c0-8.3,6.8-13.4,14.8-13.4c6.8,0,12.4,2.8,16.1,8.4L565.4,159z"/>
	<path class="st0" d="M582.6,133.8c0-1.6-1-2.6-2.7-2.6h-3.8v8.4h1.2v-3.3h2.2l1.8,3.3h1.4l-1.9-3.4
		C581.9,135.9,582.6,135,582.6,133.8 M577.3,132.4h2.6c1,0,1.5,0.5,1.5,1.3c0,1-0.8,1.3-1.4,1.3h-2.6V132.4z"/>
	<path class="st0" d="M579,128c-4.1,0-7.4,3.3-7.4,7.4c0,4.1,3.3,7.4,7.4,7.4c4.1,0,7.4-3.3,7.4-7.4C586.4,131.3,583.1,128,579,128
		 M579,141.6c-3.4,0-6.1-2.8-6.1-6.2c0-3.4,2.8-6.2,6.1-6.2c3.4,0,6.2,2.8,6.2,6.2C585.1,138.8,582.4,141.6,579,141.6"/>
	<polygon class="st0" points="88.4,139.8 70.7,139.8 70.7,196.5 57,196.5 57,139.8 39.3,139.8 39.3,128.2 88.4,128.2 	"/>
</g>
<g>
	<g>
		<path class="st0" d="M84.8,88.5c-1.5,2.1-3.2,3.8-5.2,5.3c-2,1.4-4.2,2.6-6.6,3.3s-4.9,1.2-7.6,1.2c-3.4,0-6.6-0.7-9.6-2.1
			c-3-1.4-5.7-3.2-7.9-5.6c-2.2-2.4-4-5.1-5.3-8.3c-1.3-3.2-1.9-6.6-1.9-10.2s0.6-7,1.9-10.1c1.3-3.1,3.1-5.9,5.3-8.2
			c2.2-2.4,4.9-4.2,7.9-5.6c3-1.4,6.2-2.1,9.6-2.1c2.8,0,5.5,0.4,7.9,1.2c2.4,0.8,4.6,2,6.6,3.4c1.9,1.5,3.6,3.2,5,5.3
			s2.5,4.3,3.3,6.7H82c-1.4-3.2-3.5-5.8-6.2-7.8c-2.8-2-6.2-3-10.3-3c-2.6,0-5,0.5-7.3,1.6c-2.3,1.1-4.2,2.5-5.9,4.4
			c-1.7,1.8-3,4-4,6.4c-1,2.4-1.5,5-1.5,7.8s0.5,5.3,1.5,7.8c1,2.4,2.3,4.6,4,6.4c1.7,1.8,3.7,3.3,5.9,4.4c2.3,1.1,4.7,1.6,7.3,1.6
			c3.7,0,7-1,9.9-2.9c2.9-1.9,5.1-4.6,6.6-7.9h6.4C87.5,84.2,86.3,86.5,84.8,88.5z"/>
		<path class="st0" d="M108.9,66c-1.4,0.4-2.7,1-3.8,1.9s-1.9,2-2.6,3.3c-0.6,1.3-1,3-1,4.8v21.5h-6.1V60.4h5.9v4.2
			c0.7-1,1.5-1.9,2.5-2.6c0.9-0.7,1.9-1.2,3-1.7s2.2-0.7,3.3-0.8s2.2-0.1,3.3,0v6C111.8,65.5,110.3,65.6,108.9,66z"/>
		<path class="st0" d="M147.5,95.1c-3,2.1-6.7,3.2-11,3.2c-2.7,0-5.2-0.5-7.5-1.5c-2.3-1-4.3-2.4-6-4.1c-1.7-1.7-3-3.8-4-6.1
			c-1-2.4-1.5-4.9-1.5-7.6c0-2.7,0.5-5.2,1.5-7.6c1-2.4,2.3-4.4,4-6.2c1.7-1.8,3.6-3.1,5.9-4.2c2.3-1,4.7-1.5,7.3-1.5
			c2.4,0,4.7,0.5,7,1.4s4.3,2.4,6,4.2c1.8,1.8,3.1,4,4.2,6.6c1,2.6,1.5,5.5,1.5,8.9h-31.2c0.2,1.9,0.7,3.6,1.5,5.1
			c0.8,1.5,1.8,2.8,3,3.9c1.2,1.1,2.5,1.9,3.9,2.4c1.4,0.6,2.9,0.8,4.5,0.8c2.6,0,4.9-0.6,6.7-1.8c1.8-1.2,3.3-2.9,4.3-5h6.5
			C152.7,89.9,150.6,93,147.5,95.1z M146.4,71c-0.8-1.2-1.7-2.3-2.8-3.2c-1.1-0.9-2.2-1.6-3.5-2.1c-1.3-0.5-2.6-0.7-3.9-0.7
			c-1.3,0-2.6,0.2-3.9,0.7s-2.4,1.1-3.5,2c-1.1,0.9-2,1.9-2.9,3.2s-1.5,2.7-1.8,4.2h24C147.7,73.6,147.1,72.2,146.4,71z"/>
		<path class="st0" d="M187.3,95.6c-0.2-0.7-0.3-1.5-0.3-2.4c-1.3,1.6-3.1,2.9-5.2,3.8c-2.1,0.9-4.6,1.3-7.5,1.3
			c-1.9,0-3.8-0.2-5.5-0.6c-1.8-0.4-3.3-1.1-4.6-2.1c-1.3-0.9-2.4-2.1-3.2-3.6s-1.2-3.2-1.2-5.2c0-3.8,1.3-6.7,4-8.5
			c2.6-1.8,6.4-2.9,11.2-3.1c2.3-0.1,4.2-0.3,5.7-0.5c1.5-0.3,2.8-0.6,3.7-1c0.9-0.4,1.6-0.9,2-1.5c0.4-0.6,0.6-1.2,0.6-1.9
			c0-1.5-0.7-2.7-2.2-3.7c-1.4-1-3.7-1.5-6.9-1.5c-1,0-2,0.1-3.1,0.3c-1.1,0.2-2.1,0.5-3,1c-0.9,0.5-1.7,1.2-2.4,2s-1.1,2-1.2,3.3
			h-6.3c0.2-3.7,1.8-6.7,4.6-8.9s6.6-3.3,11.4-3.3c5,0,8.7,1.1,11.2,3.2c2.5,2.1,3.7,4.9,3.7,8.4v20.4c0,1,0.1,2,0.3,3.2
			c0.2,1.2,0.5,2.1,0.8,2.8h-6C187.6,96.9,187.4,96.3,187.3,95.6z M182,79.7c-2,0.4-4.1,0.6-6.3,0.8c-2,0.1-3.7,0.4-4.9,0.8
			s-2.3,0.9-3,1.4c-0.7,0.6-1.2,1.2-1.5,1.9c-0.3,0.7-0.4,1.5-0.4,2.2c0,1,0.2,1.9,0.7,2.6c0.5,0.7,1.1,1.3,1.9,1.8
			c0.8,0.5,1.7,0.8,2.7,1c1,0.2,2.1,0.3,3.3,0.3c1.6,0,3.1-0.2,4.6-0.5c1.5-0.4,2.8-0.9,4-1.7c1.2-0.7,2.1-1.7,2.8-2.9
			c0.7-1.2,1.1-2.6,1.1-4.3v-5.7C185.6,78.6,184,79.4,182,79.7z"/>
		<path class="st0" d="M212.9,97.1c-1.8-0.5-3.3-1.3-4.6-2.5c-1.3-1.2-2.3-2.7-3-4.5s-1.1-3.9-1.1-6.2V66.2h-5v-5.8h5v-7.9h6v7.9
			h8.4v5.8h-8.4v17.7c0,1.6,0.2,3,0.7,4s1.1,1.9,1.9,2.5c0.8,0.6,1.7,1,2.7,1.2c1,0.2,2.1,0.3,3.3,0.2v5.6
			C216.7,97.7,214.7,97.6,212.9,97.1z"/>
		<path class="st0" d="M253,95.1c-3,2.1-6.7,3.2-11,3.2c-2.7,0-5.2-0.5-7.5-1.5c-2.3-1-4.3-2.4-6-4.1c-1.7-1.7-3-3.8-4-6.1
			c-1-2.4-1.5-4.9-1.5-7.6c0-2.7,0.5-5.2,1.5-7.6c1-2.4,2.3-4.4,4-6.2c1.7-1.8,3.6-3.1,5.9-4.2c2.3-1,4.7-1.5,7.3-1.5
			c2.4,0,4.7,0.5,7,1.4s4.3,2.4,6,4.2c1.8,1.8,3.1,4,4.2,6.6c1,2.6,1.5,5.5,1.5,8.9h-31.2c0.2,1.9,0.7,3.6,1.5,5.1
			c0.8,1.5,1.8,2.8,3,3.9c1.2,1.1,2.5,1.9,3.9,2.4c1.4,0.6,2.9,0.8,4.5,0.8c2.6,0,4.9-0.6,6.7-1.8c1.8-1.2,3.3-2.9,4.3-5h6.5
			C258.2,89.9,256,93,253,95.1z M251.8,71c-0.8-1.2-1.7-2.3-2.8-3.2c-1.1-0.9-2.2-1.6-3.5-2.1c-1.3-0.5-2.6-0.7-3.9-0.7
			c-1.3,0-2.6,0.2-3.9,0.7s-2.4,1.1-3.5,2s-2,1.9-2.9,3.2s-1.5,2.7-1.8,4.2h24C253.2,73.6,252.6,72.2,251.8,71z"/>
		<path class="st0" d="M296.5,97.5v-6c-1.3,1.9-3.1,3.6-5.3,4.9c-2.3,1.3-4.8,2-7.5,2c-2.7,0-5.2-0.5-7.4-1.5
			c-2.3-1-4.2-2.4-5.9-4.2c-1.7-1.8-3-3.8-3.9-6.2c-0.9-2.4-1.4-4.9-1.4-7.6c0-2.7,0.5-5.2,1.4-7.6c0.9-2.4,2.2-4.4,3.9-6.2
			s3.6-3.1,5.9-4.2c2.3-1,4.7-1.5,7.4-1.5s5.1,0.6,7.3,1.9c2.2,1.3,3.9,2.8,5.3,4.6V43.9h6.1v53.6H296.5z M295.3,73.6
			c-0.7-1.7-1.6-3.2-2.7-4.4c-1.2-1.3-2.5-2.3-4-3c-1.5-0.7-3.1-1.1-4.9-1.1c-1.7,0-3.4,0.4-4.9,1.1c-1.5,0.7-2.9,1.7-4,3
			c-1.1,1.3-2,2.7-2.6,4.4c-0.6,1.7-1,3.5-1,5.4c0,1.9,0.3,3.6,1,5.3c0.6,1.7,1.5,3.1,2.6,4.4c1.1,1.2,2.4,2.2,4,3
			c1.5,0.7,3.2,1.1,4.9,1.1c1.7,0,3.3-0.4,4.9-1.1c1.5-0.7,2.8-1.7,4-3c1.2-1.2,2.1-2.7,2.7-4.4c0.7-1.7,1-3.5,1-5.3
			C296.3,77.1,296,75.3,295.3,73.6z"/>
		<path class="st0" d="M370,86.5c-0.9,2.4-2.2,4.4-3.9,6.2c-1.6,1.8-3.6,3.2-5.9,4.2s-4.7,1.5-7.4,1.5c-2.7,0-5.2-0.7-7.5-2
			c-2.3-1.3-4-3-5.3-4.9v6h-5.9V43.9h6.1V66c1.3-1.8,3.1-3.4,5.3-4.6c2.2-1.3,4.6-1.9,7.3-1.9c2.6,0,5.1,0.5,7.4,1.5
			c2.3,1,4.2,2.4,5.9,4.2c1.6,1.8,2.9,3.8,3.9,6.2c0.9,2.4,1.4,4.9,1.4,7.6C371.4,81.7,370.9,84.2,370,86.5z M364.3,73.6
			c-0.6-1.7-1.5-3.2-2.6-4.4c-1.1-1.3-2.4-2.3-3.9-3c-1.5-0.7-3.1-1.1-4.9-1.1c-1.7,0-3.3,0.4-4.9,1.1c-1.5,0.7-2.8,1.7-4,3
			c-1.2,1.3-2.1,2.7-2.7,4.4c-0.7,1.7-1,3.5-1,5.4c0,1.9,0.3,3.6,1,5.3c0.7,1.7,1.6,3.1,2.7,4.4s2.5,2.2,4,3
			c1.5,0.7,3.1,1.1,4.9,1.1c1.7,0,3.3-0.4,4.9-1.1c1.5-0.7,2.8-1.7,3.9-3c1.1-1.2,2-2.7,2.6-4.4c0.6-1.7,1-3.5,1-5.3
			C365.3,77.1,364.9,75.3,364.3,73.6z"/>
		<path class="st0" d="M387.4,111.9c-2.2,1.4-5.1,2-8.9,1.6v-5.6c1.2,0.1,2.2,0.1,3.1-0.1c0.9-0.2,1.7-0.5,2.3-0.9
			c0.6-0.4,1.2-1,1.7-1.7c0.5-0.7,0.9-1.6,1.3-2.7l1.9-5.2l-14.2-36.9h6.6l10.8,29.5l10.6-29.5h6.6l-16.6,44.2
			C391.3,108.1,389.6,110.5,387.4,111.9z"/>
	</g>
</g>
</svg>
